<?xml version="1.0" encoding="UTF-8" standalone="no"?>
<!-- Created with Inkscape (http://www.inkscape.org/) -->

<svg
   width="57.068497mm"
   height="60.337746mm"
   viewBox="0 0 57.068497 60.337746"
   version="1.1"
   id="svg1"
   xml:space="preserve"
   xmlns="http://www.w3.org/2000/svg"
   xmlns:svg="http://www.w3.org/2000/svg"><defs
     id="defs1" /><g
     id="layer1"
     transform="translate(-131.21958,-44.901793)"><path
       style="font-variation-settings:normal;opacity:1;vector-effect:none;fill:none;fill-opacity:1;stroke:#000000;stroke-width:2.4;stroke-linecap:butt;stroke-linejoin:miter;stroke-miterlimit:4;stroke-dasharray:none;stroke-dashoffset:0;stroke-opacity:1;-inkscape-stroke:none;paint-order:stroke fill markers;stop-color:#000000;stop-opacity:1"
       d="m 151.42966,83.620993 c -1.80489,0.448844 -1.06982,2.962976 0.71881,2.515819 0.82979,-0.207447 1.34643,-1.125117 0.89851,-1.797013 -0.0629,-0.09436 -0.18282,-0.480244 -0.35941,-0.539106 -0.40182,-0.133941 -0.84257,-0.09663 -1.25791,-0.1797 z"
       id="path46" /><path
       style="font-variation-settings:normal;opacity:1;vector-effect:none;fill:none;fill-opacity:1;stroke:#000000;stroke-width:2.4;stroke-linecap:butt;stroke-linejoin:miter;stroke-miterlimit:4;stroke-dasharray:none;stroke-dashoffset:0;stroke-opacity:1;-inkscape-stroke:none;paint-order:stroke fill markers;stop-color:#000000;stop-opacity:1"
       d="m 165.08698,83.800693 c -0.29951,0.119802 -0.61844,0.199361 -0.89851,0.359403 -0.41852,0.239157 -0.31177,0.377803 -0.53911,0.718806 -0.9901,1.48515 2.00279,2.078226 2.51583,0.539104 0.21744,-0.652328 0.2745,-0.127349 0,-0.539104 -0.60211,-0.903165 0.64329,0.298997 -1.07821,-1.078209 z"
       id="path47" /><path
       style="font-variation-settings:normal;opacity:1;vector-effect:none;fill:none;fill-opacity:1;stroke:#000000;stroke-width:2.4;stroke-linecap:butt;stroke-linejoin:miter;stroke-miterlimit:4;stroke-dasharray:none;stroke-dashoffset:0;stroke-opacity:1;-inkscape-stroke:none;paint-order:stroke fill markers;stop-color:#000000;stop-opacity:1"
       d="m 153.58608,93.14517 c 0.0599,0.239601 0.088,0.489495 0.17971,0.718806 0.0917,0.229355 0.39275,0.213059 0.5391,0.359403 0.43646,0.436459 -0.0535,0.263878 0.3594,0.539105 1.03011,0.686741 3.43623,1.669916 4.67224,1.257909 0.4049,-0.134968 0.87877,-0.46605 1.25791,-0.718806 0.22289,-0.148595 0.52938,-0.16998 0.7188,-0.359402 0.0947,-0.09471 0.085,-0.264691 0.17971,-0.359404 0.28412,-0.284123 1.14744,-0.649567 0.7188,-1.078207"
       id="path48" /><path
       style="font-variation-settings:normal;opacity:1;vector-effect:none;fill:none;fill-opacity:1;stroke:#000000;stroke-width:2.4;stroke-linecap:butt;stroke-linejoin:miter;stroke-miterlimit:4;stroke-dasharray:none;stroke-dashoffset:0;stroke-opacity:1;-inkscape-stroke:none;paint-order:stroke fill markers;stop-color:#000000;stop-opacity:1"
       d="m 177.12697,87.394723 c 0.0947,0.09471 0.35941,0.313643 0.35941,0.1797 0,-0.262401 -1.78804,-2.812329 -1.97672,-3.054923 -0.20803,-0.267472 -0.51077,-0.451335 -0.7188,-0.718807 -1.72509,-2.217969 -1.99768,-3.806732 -1.61731,-6.469253 0.54589,-3.821287 -0.16803,-0.837835 0.35939,-2.156417 0.11572,-0.2893 0.3695,-1.068096 0.35941,-1.078209 -0.0689,-0.06887 -1.34122,0.51501 -1.43761,0.539106 -2.41764,0.604405 -4.64627,0.728792 -7.00836,-0.179703 -1.53167,-0.589103 -3.27416,-1.469954 -3.95343,-3.054925 -0.24699,-0.576368 -0.0645,-0.861703 -0.17971,-1.437611 -0.046,-0.230322 -0.32522,-0.718806 -0.17969,-0.718806 0.48788,0 -0.86207,1.791454 -1.07822,1.976715 -1.61092,1.380792 -3.63949,2.17374 -5.75044,2.33612 -1.04218,0.08016 -3.35034,-0.141308 -4.31284,-0.718806 -0.16768,-0.100611 -0.86718,-0.898508 -1.0782,-0.898508 -0.11981,0 0,0.239601 0,0.359404 0,0.355925 -0.15218,0.967776 -0.35941,1.25791 -0.63098,0.883372 -1.91364,2.146045 -2.87522,2.695521 -0.45493,0.25996 -3.15533,0.907775 -3.59403,0.359403 -0.16735,-0.209182 -0.2396,-0.479204 -0.35941,-0.718805 -1.03057,2.713022 -1.74406,5.559508 -2.15641,8.44597 -0.0913,0.639389 0.0938,1.19585 0.1797,1.797015 0.0339,0.237193 -0.0339,0.481612 0,0.718806 0.20813,1.456922 0.60728,3.079769 1.07821,4.492536 0.31505,0.94514 0.32444,0.469179 0.71881,1.257911 1.00802,2.016061 -0.95665,-1.359651 0.5391,1.25791 0.32065,0.561136 0.76095,1.062098 1.07821,1.617313 0.094,0.164464 0.0661,0.387567 0.1797,0.539104 0.0804,0.107154 0.26469,0.08499 0.35941,0.179702 0.30543,0.305434 0.41337,0.772775 0.7188,1.078209 0.0947,0.09471 0.26469,0.08499 0.3594,0.179701 0.93401,0.934012 -0.17035,0.187182 0.71881,0.898508 0.63019,0.504152 1.16862,1.1146 1.79702,1.617313 0.20917,0.167343 0.50449,0.198673 0.7188,0.359403 0.37736,0.28302 0.70084,0.61549 1.07821,0.89851 0.51122,0.38342 1.25832,0.39559 1.79702,0.7188 0.14527,0.0872 0.21412,0.27224 0.35939,0.35941 1.20217,0.7213 3.32491,0.92107 4.67225,1.25791 0.41917,0.10479 0.83661,0.27514 1.2579,0.3594 2.00683,0.40136 7.49135,-0.51104 9.34448,-1.43761 2.40794,-1.20397 4.86195,-3.247972 6.46925,-5.391047 0.40253,-0.536708 1.03508,-0.900903 1.43761,-1.437612 0.16073,-0.214306 0.19868,-0.504499 0.35941,-0.718805 0.28302,-0.377363 0.61549,-0.700846 0.8985,-1.078209 0.34044,0.02046 0.11981,-0.419304 0.1797,-0.539104 0.2229,-0.445786 0.68923,-0.839339 0.89852,-1.257911 0.0536,-0.107153 -0.0379,-0.245749 0,-0.359403 0.0683,-0.204891 0.26281,-0.345931 0.3594,-0.539104 0.19457,-0.389155 0.2343,-0.702901 0.3594,-1.078209 0.0268,-0.08036 0.15291,-0.09934 0.1797,-0.179702 0.0964,-0.289261 -0.2084,-1.229208 0,-1.437612 0.0423,-0.04236 0.13735,0.04236 0.1797,0 0.0476,-0.04757 0,-0.465109 0,-0.539104 0,-0.179702 0,-0.359403 0,-0.539104 0,-0.0599 0.0599,-0.179701 0,-0.179701 -0.24697,-10e-7 -0.4792,0.1198 -0.71881,0.1797 z"
       id="path49" /><path
       style="font-variation-settings:normal;opacity:1;vector-effect:none;fill:none;fill-opacity:1;stroke:#000000;stroke-width:2.4;stroke-linecap:butt;stroke-linejoin:miter;stroke-miterlimit:4;stroke-dasharray:none;stroke-dashoffset:0;stroke-opacity:1;-inkscape-stroke:none;paint-order:stroke fill markers;stop-color:#000000;stop-opacity:1"
       d="m 138.54704,77.183236 c -1.5405,0.883901 -2.38187,0.568844 -3.83231,-0.160813 -0.36334,-0.182785 -0.71921,-0.370574 -0.99618,-0.68913 -0.76667,-0.881828 -1.00983,-2.20617 -1.1486,-3.284837 -0.11559,-0.898574 -0.39178,-2.317079 0.32116,-3.147003 1.33946,-1.559215 3.4317,-1.984138 5.26615,-2.802418 0.38514,-0.171797 1.11768,-0.191813 1.38704,-0.505352 0.11765,-0.13697 -0.18232,-0.297965 -0.24061,-0.459417 -0.23865,-0.66098 -0.36883,-2.214396 -0.37235,-2.894328 -0.0134,-2.58693 0.99755,-5.471245 3.45776,-6.983119 1.15962,-0.712618 2.58205,-1.499778 3.94118,-1.814678 0.29195,-0.06763 0.60007,-0.0501 0.89274,-0.114849 0.95256,-0.210768 1.83509,-0.500067 2.83613,-0.528318 0.53627,-0.01513 3.95358,0.259789 4.1894,0.114877 0.33159,-0.203767 0.86802,-2.605798 1.05605,-3.078087 0.61265,-1.538847 2.51552,-2.935655 4.07074,-3.629375 0.44762,-0.199667 0.93941,-0.305685 1.38703,-0.505352 0.75595,-0.337201 1.25019,-0.583746 2.10123,-0.597232 2.93214,-0.04646 6.57104,0.741697 7.70054,3.422691 0.35864,0.85127 1.12049,3.778314 1.98691,4.157731 0.6806,0.298039 3.87826,-0.252899 4.68369,-0.275628 1.16859,-0.03298 2.01648,0.511608 3.02229,0.918849 1.36364,0.552117 0.19136,-0.195542 1.90962,0.735076 0.88942,0.481717 1.29959,1.082184 1.69732,1.906587 0.14993,0.310777 0.37631,0.592422 0.48122,0.918835 0.62626,1.948758 -0.67729,4.301044 -1.97494,5.811613 -0.29061,0.338295 -0.62831,0.642787 -0.96787,0.941799 -0.0972,0.08561 -0.21503,0.152594 -0.33642,0.206737 -0.0542,0.0242 -0.18544,-0.03064 -0.17855,0.02297 0.007,0.05359 0.11992,-0.03265 0.17855,-0.02297 0.13114,0.02166 0.25186,0.07657 0.37779,0.114854 0.3688,0.112123 0.60042,0.166572 0.95482,0.36754 0.77104,0.437239 0.49523,0.414473 1.21609,0.987751 0.82297,0.654481 0.74827,0.387107 1.41534,1.125578 0.84818,0.938969 1.63772,2.790495 1.96625,3.996935 0.22824,0.83815 -0.0359,2.40079 -0.49973,3.169972 -0.36141,0.59938 -1.01126,1.078689 -1.42078,1.653895 -0.34214,0.480582 -0.56784,0.956233 -1.10505,1.286362 -0.17249,0.106 -0.52102,0.146678 -0.69352,0.252676 -0.34693,0.213204 -0.68668,0.42199 -1.00923,0.620209 -0.0501,0.03082 -0.18546,-0.03064 -0.17856,0.02297 0.01,0.07742 1.23158,0.168322 1.51115,0.459423 0.50079,0.521438 1.3616,2.637003 1.32716,3.261866 -0.078,1.416335 -0.68075,3.067964 -1.4469,4.272569 -0.13504,0.212303 -0.10797,0.495418 -0.27437,0.689124 -0.34458,0.401121 -0.9251,0.635619 -1.32497,0.98774 -0.12297,0.108285 -0.18141,0.270963 -0.31572,0.367531 -0.49579,0.356454 -1.18244,0.514451 -1.70277,0.872884 -0.17398,0.11985 -0.31346,0.279386 -0.49428,0.390503 -0.60851,0.373945 -2.09666,-0.03153 -2.74031,-0.137837 -0.10488,-0.01733 -0.45563,0.124265 -0.53565,0.06891 -0.0469,-0.03249 -0.0138,-0.1072 -0.0207,-0.160797"
       id="path50" /><path
       style="font-variation-settings:normal;opacity:1;vector-effect:none;fill:none;fill-opacity:1;stroke:#000000;stroke-width:2.4;stroke-linecap:butt;stroke-linejoin:miter;stroke-miterlimit:4;stroke-dasharray:none;stroke-dashoffset:0;stroke-opacity:1;-inkscape-stroke:none;paint-order:stroke fill markers;stop-color:#000000;stop-opacity:1"
       d="m 139.56937,86.136812 c -0.2995,0.119803 -0.59249,0.257398 -0.89851,0.359404 -0.27777,0.09259 -0.66035,-0.264143 -0.89851,-0.359404 -0.0963,-0.03851 -1.41549,-0.696686 -1.43761,-0.718806 -0.13394,-0.13394 -0.095,-0.369679 -0.1797,-0.539104 -0.7447,-1.489404 -0.98829,-2.650698 0,-4.133135 0.26826,-0.402383 0.64425,-0.997539 1.07821,-1.257909 0.69524,-0.41714 3.75721,-0.604511 4.49253,-0.359402 0.41744,0.139144 0.15825,0.359402 0.71881,0.359402"
       id="path51" /><path
       style="font-variation-settings:normal;opacity:1;vector-effect:none;fill:none;fill-opacity:1;stroke:#000000;stroke-width:2.4;stroke-linecap:butt;stroke-linejoin:miter;stroke-miterlimit:4;stroke-dasharray:none;stroke-dashoffset:0;stroke-opacity:1;-inkscape-stroke:none;paint-order:stroke fill markers;stop-color:#000000;stop-opacity:1"
       d="m 176.40817,94.942185 c 0.66719,0.510538 1.49679,0.70697 2.33612,0.539104 0.13134,-0.02627 0.22806,-0.153433 0.3594,-0.179702 0.17621,-0.03524 0.37226,0.06674 0.53911,0 0.73772,-0.295091 1.79365,-1.963268 1.97671,-2.695521 0.21048,-0.841904 0.0169,-2.088931 -0.1797,-2.875223 -0.12921,-0.51683 -0.17402,-1.110743 -0.71881,-1.437611 -1.05309,-0.631859 -2.72565,-0.01506 -3.41432,-0.359405 -0.0536,-0.02679 0,-0.1198 0,-0.179702"
       id="path52" /></g></svg>
