<?xml version="1.0" encoding="UTF-8" standalone="no"?>
<!-- Created with Inkscape (http://www.inkscape.org/) -->

<svg
   width="61.758163mm"
   height="37.88065mm"
   viewBox="0 0 61.758163 37.88065"
   version="1.1"
   id="svg1"
   xml:space="preserve"
   xmlns="http://www.w3.org/2000/svg"
   xmlns:svg="http://www.w3.org/2000/svg"><defs
     id="defs1" /><g
     id="layer1"
     transform="translate(-122.57693,-163.21438)"><path
       style="font-variation-settings:normal;opacity:1;fill:#000000;fill-opacity:1;stroke:none;stroke-width:2.4;stroke-linecap:butt;stroke-linejoin:miter;stroke-miterlimit:4;stroke-dasharray:none;stroke-dashoffset:0;stroke-opacity:1;paint-order:stroke fill markers"
       d="m 153.64034,163.21437 c -7.74136,1.67552 -15.16083,4.4686 -22.72778,6.76944 -2.7128,0.98535 -5.85895,1.28821 -8.14704,3.12608 -1.30381,4.10749 4.4805,4.70066 7.28876,5.33454 5.58756,1.2158 10.67129,3.97236 16.27167,5.14145 3.045,0.85278 5.9959,2.45281 9.25729,1.79177 3.42763,-0.87614 6.62472,-2.52198 10.06759,-3.3931 5.79712,-2.1672 11.86226,-3.55862 17.65129,-5.73397 3.66872,-3.60235 -3.42812,-4.55761 -5.84315,-5.40497 -7.92369,-2.59588 -15.88177,-5.09778 -23.81863,-7.63124 z"
       id="path40" /><path
       style="font-variation-settings:normal;opacity:1;fill:#000000;fill-opacity:1;stroke:none;stroke-width:2.4;stroke-linecap:butt;stroke-linejoin:miter;stroke-miterlimit:4;stroke-dasharray:none;stroke-dashoffset:0;stroke-opacity:1;paint-order:stroke fill markers"
       d="m 170.07938,183.58592 c 0.45893,2.06442 0.56534,4.21032 1.26065,6.23846 0.42943,2.27783 1.30813,5.09724 -0.68657,6.88473 -1.11242,1.28088 -2.82163,1.80762 -4.31792,2.51057 -4.25938,0.96355 -8.65192,1.34449 -13.01917,1.57106 -5.09632,0.26467 -10.30596,-0.35427 -15.00538,-2.41889 -1.77992,-0.99613 -4.33268,-2.39227 -3.50774,-4.83569 0.37518,-3.08907 0.5683,-6.19748 1.02315,-9.27384 1.39708,-1.07313 3.80121,0.97022 5.62875,1.23376 3.96418,1.40628 8.05362,2.55948 12.23049,3.10854 2.73499,0.0257 5.32366,-1.0969 7.79701,-2.19124 2.86887,-0.95708 5.68901,-1.99414 8.59673,-2.82746 z"
       id="path41" /><path
       style="font-variation-settings:normal;opacity:1;fill:#000000;fill-opacity:1;stroke:none;stroke-width:2.4;stroke-linecap:butt;stroke-linejoin:miter;stroke-miterlimit:4;stroke-dasharray:none;stroke-dashoffset:0;stroke-opacity:1;paint-order:stroke fill markers"
       d="m 129.17874,177.84413 c -1.32344,1.206 -1.83963,3.05332 -1.8091,4.79794 -0.94088,-0.084 -1.42009,1.14794 -1.68298,1.87521 -0.16056,0.96541 -0.0435,2.06923 0.47319,2.8745 0.84058,0.34192 1.01806,0.97815 0.65807,1.78255 -0.21132,0.85839 -0.38575,1.72818 -0.60231,2.58336 -0.11808,0.18726 -0.20136,1.35788 -0.49668,1.84538 -0.24457,1.16398 -0.54044,2.325 -0.83925,3.47865 -0.15965,0.97389 -0.62002,2.04027 -0.19577,2.99775 0.43353,0.82446 1.4693,0.96838 2.32704,1.01556 1.18973,-0.13396 2.40696,0.14166 3.57341,-0.2106 0.80977,-0.18693 2.01794,-0.34734 2.13298,-1.36579 0.0577,-1.56701 -0.31003,-3.11529 -0.63472,-4.63726 -0.43548,-1.18312 -0.51868,-2.4472 -0.7926,-3.67094 -0.19052,-0.88101 -0.43341,-1.75897 -0.62477,-2.64645 -0.64626,-1.02868 0.65165,-1.60491 0.86843,-2.53311 0.39728,-1.04291 -0.37339,-2.02386 -0.85713,-2.8907 -1.12388,-0.65477 -0.28204,-2.03837 0.20001,-2.84024 0.35818,-0.9169 2.23952,-1.31575 1.29452,-2.41471 -0.68298,-1.07052 -2.16442,-0.70706 -2.99234,-0.0411 z"
       id="path42" /></g></svg>
