<?xml version="1.0" encoding="UTF-8" standalone="no"?>
<!-- Created with Inkscape (http://www.inkscape.org/) -->

<svg
   width="58.490162mm"
   height="48.626926mm"
   viewBox="0 0 58.490162 48.626926"
   version="1.1"
   id="svg1"
   xml:space="preserve"
   xmlns="http://www.w3.org/2000/svg"
   xmlns:svg="http://www.w3.org/2000/svg"><defs
     id="defs1" /><g
     id="layer1"
     transform="translate(-71.43268,-104.45089)"><path
       style="font-variation-settings:normal;opacity:1;fill:none;fill-opacity:1;stroke:#000000;stroke-width:2.12142;stroke-linecap:butt;stroke-linejoin:miter;stroke-miterlimit:4;stroke-dasharray:none;stroke-dashoffset:0;stroke-opacity:1;paint-order:stroke fill markers"
       d="m 128.76989,125.49966 c -0.15842,-1.70233 -1.05184,-5.71172 -1.94959,-8.15525 -1.25847,-2.61577 -0.98374,-5.70536 -4.29722,-5.79705 -4.53257,-1.25648 -8.98784,-2.78425 -13.43417,-4.28581 -2.4083,-0.5656 -5.94317,-3.19263 -7.82363,-0.67635 -2.480954,2.21489 -5.270654,4.06819 -7.563314,6.49239 -2.65933,1.15087 -1.64563,2.34801 0.69226,2.66311 3.02416,0.68826 5.922464,1.77959 8.942104,2.48579 2.2484,1.30066 5.12218,1.34219 7.27532,2.38911 5.35325,1.30239 10.49134,3.38565 15.89798,4.47563 0.67539,0.40636 1.4907,0.49182 2.26026,0.40843 z"
       id="path21" /><path
       style="font-variation-settings:normal;opacity:1;fill:none;fill-opacity:1;stroke:#000000;stroke-width:2.12142;stroke-linecap:butt;stroke-linejoin:miter;stroke-miterlimit:4;stroke-dasharray:none;stroke-dashoffset:0;stroke-opacity:1;paint-order:stroke fill markers"
       d="m 91.958416,115.22298 c 0.004,4.33784 1.8077,8.41092 2.4163,12.67304 1.13045,5.4848 2.21221,10.96623 3.5859,16.3851 0.74522,2.27926 1.40262,4.59366 2.326084,6.80978"
       id="path22" /><path
       style="font-variation-settings:normal;opacity:1;fill:none;fill-opacity:1;stroke:#000000;stroke-width:2.12142;stroke-linecap:butt;stroke-linejoin:miter;stroke-miterlimit:4;stroke-dasharray:none;stroke-dashoffset:0;stroke-opacity:1;paint-order:stroke fill markers"
       d="m 128.32835,125.60854 c -1.84996,2.05225 -4.24934,3.52199 -6.13407,5.54498 -2.57762,2.46849 -5.45878,4.56303 -8.01522,7.05387 -3.5856,2.9123 -6.74109,6.29952 -10.2363,9.30029 -0.77731,0.82087 -4.186144,4.29663 -3.944454,3.56678"
       id="path23" /><path
       style="font-variation-settings:normal;opacity:1;fill:none;fill-opacity:1;stroke:#000000;stroke-width:2.12142;stroke-linecap:butt;stroke-linejoin:miter;stroke-miterlimit:4;stroke-dasharray:none;stroke-dashoffset:0;stroke-opacity:1;paint-order:stroke fill markers"
       d="m 103.6117,105.43032 c -0.002,4.0142 1.45179,7.87988 1.33398,11.91861 0.0249,-0.1476 0.0498,-0.29519 0.0747,-0.44279"
       id="path24" /><path
       style="font-variation-settings:normal;opacity:1;fill:none;fill-opacity:1;stroke:#000000;stroke-width:2.12142;stroke-linecap:butt;stroke-linejoin:miter;stroke-miterlimit:4;stroke-dasharray:none;stroke-dashoffset:0;stroke-opacity:1;paint-order:stroke fill markers"
       d="m 104.50775,118.08349 c 2.37183,-3.3678 5.4793,-6.15007 8.29494,-9.13111 2.7009,0.28593 2.51271,5.3021 3.34218,7.80577 0.61329,1.17931 0.20944,4.23376 1.18296,4.46942"
       id="path25" /><path
       style="font-variation-settings:normal;opacity:1;fill:none;fill-opacity:1;stroke:#000000;stroke-width:2.12142;stroke-linecap:butt;stroke-linejoin:miter;stroke-miterlimit:4;stroke-dasharray:none;stroke-dashoffset:0;stroke-opacity:1;paint-order:stroke fill markers"
       d="m 125.04271,111.88068 c -2.64217,3.40825 -5.88058,6.28882 -8.32734,9.84823 0.23249,0.29265 -0.39425,0.41597 -0.28838,-0.0165"
       id="path26" /><path
       style="font-variation-settings:normal;opacity:1;fill:none;fill-opacity:1;stroke:#000000;stroke-width:2.12142;stroke-linecap:butt;stroke-linejoin:miter;stroke-miterlimit:4;stroke-dasharray:none;stroke-dashoffset:0;stroke-opacity:1;paint-order:stroke fill markers"
       d="m 104.94929,117.9746 c -1.47216,4.20343 -1.11694,8.69846 -1.78444,13.03744 -0.1164,3.05333 -1.07503,6.86791 -0.84818,9.34379 -0.48773,3.50683 -1.43342,6.8508 -2.424794,10.2217 l 0.160464,-0.30442"
       id="path27" /><path
       style="font-variation-settings:normal;opacity:1;fill:none;fill-opacity:1;stroke:#000000;stroke-width:2.12142;stroke-linecap:butt;stroke-linejoin:miter;stroke-miterlimit:4;stroke-dasharray:none;stroke-dashoffset:0;stroke-opacity:1;paint-order:stroke fill markers"
       d="m 116.27383,121.83779 c -1.70064,3.70585 -4.30073,6.9151 -6.327,10.43152 -1.45407,2.57829 -3.22467,4.95055 -4.71576,7.49219 -1.68647,3.16544 -3.04287,6.49782 -4.9306,9.55782 l 2.2e-4,-0.0712 -0.0251,-0.16883"
       id="path28" /><path
       style="font-variation-settings:normal;opacity:1;fill:#000000;fill-opacity:1;stroke:none;stroke-width:0.685714;stroke-linecap:butt;stroke-linejoin:miter;stroke-miterlimit:4;stroke-dasharray:none;stroke-dashoffset:0;stroke-opacity:1;paint-order:stroke fill markers"
       d="m 71.432676,125.35315 3.428573,-5.71428 3.428567,5.71428 z"
       id="path32" /><path
       style="font-variation-settings:normal;fill:#000000;fill-opacity:1;stroke:none;stroke-width:0.685714;stroke-linecap:butt;stroke-linejoin:miter;stroke-miterlimit:4;stroke-dasharray:none;stroke-dashoffset:0;stroke-opacity:1;paint-order:stroke fill markers"
       d="m 71.432676,121.92458 3.428573,5.71429 3.428567,-5.71429 z"
       id="path32-4" /><path
       style="font-variation-settings:normal;fill:#000000;fill-opacity:1;stroke:none;stroke-width:0.929622;stroke-linecap:butt;stroke-linejoin:miter;stroke-miterlimit:4;stroke-dasharray:none;stroke-dashoffset:0;stroke-opacity:1;paint-order:stroke fill markers"
       d="m 80.279306,134.32459 4.64811,-7.74685 4.64811,7.74685 z"
       id="path32-0" /><path
       style="font-variation-settings:normal;fill:#000000;fill-opacity:1;stroke:none;stroke-width:0.929622;stroke-linecap:butt;stroke-linejoin:miter;stroke-miterlimit:4;stroke-dasharray:none;stroke-dashoffset:0;stroke-opacity:1;paint-order:stroke fill markers"
       d="m 80.279306,129.67648 4.64811,7.74686 4.64811,-7.74686 z"
       id="path32-4-9" /><path
       style="font-variation-settings:normal;fill:#000000;fill-opacity:1;stroke:none;stroke-width:0.523446;stroke-linecap:butt;stroke-linejoin:miter;stroke-miterlimit:4;stroke-dasharray:none;stroke-dashoffset:0;stroke-opacity:1;paint-order:stroke fill markers"
       d="m 80.603366,110.6516 2.64811,-4.31118 2.64811,4.31118 z"
       id="path32-0-7" /><path
       style="font-variation-settings:normal;fill:#000000;fill-opacity:1;stroke:none;stroke-width:0.523446;stroke-linecap:butt;stroke-linejoin:miter;stroke-miterlimit:4;stroke-dasharray:none;stroke-dashoffset:0;stroke-opacity:1;paint-order:stroke fill markers"
       d="m 80.603366,108.06489 2.64811,4.31118 2.64811,-4.31118 z"
       id="path32-4-9-2" /></g></svg>
