<?xml version="1.0" encoding="UTF-8" standalone="no"?>
<!-- Created with Inkscape (http://www.inkscape.org/) -->

<svg
   width="193.31958mm"
   height="190.97458mm"
   viewBox="0 0 193.31958 190.97458"
   version="1.1"
   id="svg1"
   xml:space="preserve"
   inkscape:version="1.3.2 (091e20e, 2023-11-25)"
   sodipodi:docname="heart.svg"
   xmlns:inkscape="http://www.inkscape.org/namespaces/inkscape"
   xmlns:sodipodi="http://sodipodi.sourceforge.net/DTD/sodipodi-0.dtd"
   xmlns="http://www.w3.org/2000/svg"
   xmlns:svg="http://www.w3.org/2000/svg"><sodipodi:namedview
     id="namedview1"
     pagecolor="#ffffff"
     bordercolor="#999999"
     borderopacity="1"
     inkscape:showpageshadow="2"
     inkscape:pageopacity="0"
     inkscape:pagecheckerboard="0"
     inkscape:deskcolor="#d1d1d1"
     inkscape:document-units="mm"
     showgrid="true"
     inkscape:zoom="0.43421629"
     inkscape:cx="265.99647"
     inkscape:cy="347.75296"
     inkscape:window-width="1920"
     inkscape:window-height="1027"
     inkscape:window-x="0"
     inkscape:window-y="25"
     inkscape:window-maximized="1"
     inkscape:current-layer="layer1"><inkscape:grid
       id="grid1"
       units="px"
       originx="-14.464043"
       originy="-67.100027"
       spacingx="0.26458333"
       spacingy="0.26458334"
       empcolor="#0099e5"
       empopacity="0.30196078"
       color="#0099e5"
       opacity="0.14901961"
       empspacing="5"
       dotted="false"
       gridanglex="30"
       gridanglez="30"
       visible="true" /></sodipodi:namedview><defs
     id="defs1" /><g
     inkscape:label="Layer 1"
     inkscape:groupmode="layer"
     id="layer1"
     transform="translate(-14.464043,-67.100028)"><path
       style="fill:none;stroke:#ffffff;stroke-width:2.765;stroke-linecap:butt;stroke-linejoin:miter;stroke-dasharray:none;stroke-opacity:1"
       d="M 79.374996,68.791668 110.92809,97.766964 26.458332,132.29167 19.067389,148.5 15.874999,116.41667 31.75,79.375002 26.458332,132.29167 31.75,79.375002 Z"
       id="path1"
       sodipodi:nodetypes="ccccccccc" /><path
       style="fill:none;stroke:#ffffff;stroke-width:2.765;stroke-linecap:butt;stroke-linejoin:miter;stroke-dasharray:none;stroke-opacity:1"
       d="m 79.374996,68.791668 -5.291666,15.875 1.322916,27.781252 -41.010414,-30.427084 39.687498,2.645832 36.84476,13.100293 32.41015,-29.119403 44.51592,13.373277 18.52083,35.718745 -2.64583,34.39584 -21.16667,34.39583 -23.8125,23.81251 -47.8219,45.81555 -72.563507,-69.62806 -19.84375,-35.71875 9.260417,15.875 67.468746,-6.61458 -66.14583,-27.78125 46.30208,-19.84375 19.84375,47.625 30.427084,-35.71875 -14.74899,-26.587209 -35.521844,14.680959 50.270834,11.90625 58.20833,10.58333 10.05417,-41.274999 -36.5125,-3.704166 30.42708,-7.9375 -30.42708,7.9375 -46.49899,7.808626 46.49899,-7.808626 26.45833,44.979165 -26.45833,-44.979165 -14.09464,-21.310777"
       id="path2"
       sodipodi:nodetypes="cccccccccccccccccccccccccccccccccc" /><path
       style="fill:none;stroke:#ffffff;stroke-width:2.765;stroke-linecap:butt;stroke-linejoin:miter;stroke-dasharray:none;stroke-opacity:1"
       d="m 125.67708,124.35417 17.19791,50.27083 44.97917,2.64584 -3.96875,-42.33334 19.84375,17.19792 v 0 l -15.875,25.13542 z"
       id="path3" /><path
       style="fill:none;stroke:#ffffff;stroke-width:2.765;stroke-linecap:butt;stroke-linejoin:miter;stroke-dasharray:none;stroke-opacity:1"
       d="m 95.249994,160.07292 87.312496,26.45833"
       id="path4" /><path
       style="fill:none;stroke:#ffffff;stroke-width:2.765;stroke-linecap:butt;stroke-linejoin:miter;stroke-dasharray:none;stroke-opacity:1"
       d="M 158.74999,210.34376 95.249994,160.07292 89.95833,195.79167 Z"
       id="path5" /><path
       style="fill:none;stroke:#ffffff;stroke-width:2.765;stroke-linecap:butt;stroke-linejoin:miter;stroke-dasharray:none;stroke-opacity:1"
       d="m 124.32067,243.6117 -34.36234,-47.82003 -15.875,23.8125 v 0 l -0.552778,0.67046"
       id="path6" /><path
       style="fill:none;stroke:#ffffff;stroke-width:2.765;stroke-linecap:butt;stroke-linejoin:miter;stroke-dasharray:none;stroke-opacity:1"
       d="m 89.95833,195.79167 5.291666,44.97917"
       id="path7" /><path
       style="fill:none;stroke:#ffffff;stroke-width:2.765;stroke-linecap:butt;stroke-linejoin:miter;stroke-dasharray:none;stroke-opacity:1"
       d="m 41.010415,186.53126 2.506149,0.9247 46.441766,8.33571 5.291664,-35.71875 z"
       id="path8"
       sodipodi:nodetypes="ccccc" /></g></svg>
