<?xml version="1.0" encoding="UTF-8" standalone="no"?>
<!-- Created with Inkscape (http://www.inkscape.org/) -->

<svg
   width="36.750347mm"
   height="48.235897mm"
   viewBox="0 0 36.750347 48.235897"
   version="1.1"
   id="svg1"
   xml:space="preserve"
   xmlns="http://www.w3.org/2000/svg"
   xmlns:svg="http://www.w3.org/2000/svg"><defs
     id="defs1" /><g
     id="layer1"
     transform="translate(-67.486742,-161.59304)"><g
       id="g39"
       transform="matrix(0.72638379,0,0,0.72638379,-38.334142,66.579708)"><path
         style="font-variation-settings:normal;opacity:1;fill:#000000;fill-opacity:1;stroke:none;stroke-width:2.4;stroke-linecap:butt;stroke-linejoin:miter;stroke-miterlimit:4;stroke-dasharray:none;stroke-dashoffset:0;stroke-opacity:1;paint-order:stroke fill markers"
         d="m 165.82959,131.22838 c -2.75445,1.97127 -5.02379,5.91631 -3.12466,9.18832 2.10165,3.76356 8.04734,5.4811 11.17634,2.00724 3.07173,-3.35743 1.65745,-9.60429 -2.75799,-11.03788 -1.67013,-0.65246 -3.60016,-0.82843 -5.29369,-0.15768 z"
         id="path38" /><path
         style="font-variation-settings:normal;opacity:1;fill:#000000;fill-opacity:1;stroke:none;stroke-width:2.4;stroke-linecap:butt;stroke-linejoin:miter;stroke-miterlimit:4;stroke-dasharray:none;stroke-dashoffset:0;stroke-opacity:1;paint-order:stroke fill markers"
         d="m 186.68221,155.95476 c -2.94066,-6.49258 -8.17332,-8.75649 -2.16935,-10.21982 12.84078,-5.74086 9.58427,-9.19119 8.3904,-10.18802 -9.09478,4.11459 -22.3951,11.3319 -31.49811,15.41695 -2.98094,2.23617 -6.74361,3.08883 -9.72873,5.33319 -3.16981,0.2398 -9.28133,4.75781 -3.78954,6.50516 5.91185,-0.96062 10.79573,-4.89055 16.30418,-7.02524 5.74069,-4.55983 7.17067,5.37581 10.60274,8.53528 4.1785,4.84144 2.20236,11.43909 2.81277,17.2744 0.43816,5.14499 0.0355,10.60381 2.2634,15.36709 5.08904,1.8725 4.23649,-7.07158 4.78055,-10.4099 0.41718,-5.53238 1.57808,-11.05935 1.21086,-16.62829 2.75844,-3.29591 8.32647,-5.85293 7.66183,-11.4025 1.33353,-5.96769 1.51898,-12.09005 2.40555,-18.13402 1.4326,-3.37411 -1.80137,-11.10986 -5.56458,-6.71432 -2.64326,4.77184 -2.21467,10.49637 -3.08135,15.73697 z"
         id="path39" /></g></g></svg>
