<?xml version="1.0" encoding="UTF-8" standalone="no"?>
<!-- Created with Inkscape (http://www.inkscape.org/) -->

<svg
   width="50.672661mm"
   height="41.278343mm"
   viewBox="0 0 50.672661 41.278343"
   version="1.1"
   id="svg1"
   xml:space="preserve"
   xmlns="http://www.w3.org/2000/svg"
   xmlns:svg="http://www.w3.org/2000/svg"><defs
     id="defs1" /><g
     id="layer1"
     transform="translate(-7.9837543,-169.67338)"><path
       style="font-variation-settings:normal;opacity:1;fill:none;fill-opacity:1;stroke:#000000;stroke-width:2.4;stroke-linecap:butt;stroke-linejoin:miter;stroke-miterlimit:4;stroke-dasharray:none;stroke-dashoffset:0;stroke-opacity:1;paint-order:stroke fill markers"
       d="m 23.741404,187.13608 c 0,-0.22969 -0.05112,-0.46515 0,-0.68908 0.02334,-0.10224 0.314618,-0.10487 0.314618,0 0,0.0524 -0.120229,-0.0371 -0.157309,0 -0.03708,0.0371 0.03708,0.12021 0,0.15731 -0.09665,0.0967 -0.366582,0.10393 -0.471928,0.31462 -0.139239,0.27842 0.233988,0.0538 -0.157309,0.31462 -0.4757,0.31713 -0.908753,0.69034 -1.415784,0.94385 -0.199699,0.0999 -0.604664,0.13274 -0.786547,0.31462 -0.03708,0.0371 0.03708,0.12021 0,0.15731 -0.07232,0.0723 -0.505527,0.25282 -0.629237,0.31462 -0.566656,0.28333 -1.502916,0.62924 -2.202331,0.62924 -0.314618,0 -0.629237,0 -0.943856,0 -0.05244,0 -0.157309,-0.0524 -0.157309,0 0,0.23115 0.692557,0.91318 0.786547,1.10116 0.0469,0.0938 -0.0469,0.22082 0,0.31462 0.11356,0.22712 0.201057,0.40212 0.314618,0.62924 0.06443,0.12885 -0.02403,0.50907 0,0.62924 0.223779,1.11891 -0.04207,2.39073 0.314619,3.4608 0.123869,0.37161 -0.04546,0.53831 0.157309,0.94386 0.0469,0.0938 -0.07416,0.24042 0,0.31462 0.03708,0.0371 0.12023,-0.0371 0.15731,0 0.261855,0.26181 -0.261856,0.0528 0,0.31461 0.03708,0.0371 0.120229,-0.0371 0.157309,0 0.0085,0.009 0.306119,0.46293 0.314619,0.47193 0.146939,0.14694 0.639607,0.16768 0.786546,0.31462 0.03708,0.0371 -0.03708,0.12021 0,0.15731 0.09118,0.0912 0.538057,0.22342 0.629237,0.31462 0.07866,0.0786 0.07866,0.23592 0.15731,0.31462 0.325478,0.32548 -0.01272,-0.49738 0.314618,0.15731 0.122253,0.2445 0.489731,0.35022 0.629238,0.62923 0.02345,0.0469 -0.03708,0.12021 0,0.15731 0.03708,0.0371 0.120229,-0.0371 0.157309,0 0.261856,0.26182 -0.261856,0.0528 0,0.31462 0.03708,0.0371 0.120229,-0.0371 0.157309,0 0.108784,0.10879 0.413559,1.0606 0.314619,1.25848 -0.03316,0.0663 -0.124149,0.091 -0.157309,0.15731 -0.06549,0.13097 0.09978,0.52943 0,0.62923 -0.03708,0.0371 -0.12023,-0.0371 -0.15731,0 -0.07416,0.0742 0.07416,0.24042 0,0.31462 -0.03708,0.0371 -0.120229,-0.0371 -0.157309,0 -0.05244,0.0524 -0.104869,0.41953 -0.157309,0.47193 -0.03708,0.0371 -0.12023,-0.0371 -0.15731,0 -0.09118,0.0912 -0.223438,0.53804 -0.314618,0.62924 -0.325479,0.32548 0.01272,-0.49738 -0.314619,0.15731 -0.02345,0.0469 0.03708,0.12021 0,0.15731 -0.09118,0.0912 -0.538057,0.22341 -0.629237,0.31461 -0.03708,0.0371 0.03708,0.12021 0,0.15731 -0.107536,0.10754 -0.881496,0.40953 -0.943856,0.47193 -0.03708,0.0371 0.03708,0.12021 0,0.15731 -0.07416,0.0742 -0.240459,-0.0742 -0.314619,0 -0.03708,0.0371 0.03708,0.12021 0,0.15731 -0.05244,0.0524 -0.419488,0.10491 -0.471928,0.15731 -0.03708,0.0371 0.03708,0.12021 0,0.15731 -0.05244,0.0524 -0.419488,0.10491 -0.471928,0.15731 -0.03708,0.0371 0.03708,0.12021 0,0.15731 -0.03708,0.0371 -0.120229,-0.0371 -0.157309,0 -0.03708,0.0371 0.03708,0.12021 0,0.15731 -0.03708,0.0371 -0.110409,-0.0234 -0.157309,0 -0.654684,0.32732 0.168169,-0.0109 -0.15731,0.31462 -0.03708,0.0371 -0.120229,-0.0371 -0.157309,0 -0.05218,0.0522 -0.268179,0.53633 -0.314619,0.62923 -0.09439,0.18877 -0.377538,0.28316 -0.471928,0.47193 -0.02345,0.0469 0.03708,0.12021 0,0.15731 -0.07865,0.0786 -0.235968,0.0786 -0.314618,0.15731 -0.03708,0.0371 0.03708,0.12021 0,0.15731 -0.0085,0.009 -0.463428,0.30562 -0.471928,0.31462 -0.07866,0.0787 -0.07866,0.23592 -0.15731,0.31462 -0.09118,0.0912 -0.538057,0.22342 -0.629237,0.31462 -0.03708,0.0371 0.03708,0.1202 0,0.1573 -0.0085,0.009 -0.463428,0.30562 -0.471928,0.31462 -0.03708,0.0371 0.03708,0.12021 0,0.15731 -0.07416,0.0742 -0.240458,-0.0742 -0.314618,0 -0.03708,0.0371 0.03708,0.12021 0,0.15731 -0.07272,0.0727 -0.376948,-0.0475 -0.471928,0 -0.06633,0.0332 -0.09098,0.12411 -0.15731,0.15731 -0.152239,0.0761 -1.179864,-0.23602 -1.258474,-0.31462 -0.03708,-0.0371 0.03708,-0.12021 0,-0.15731 -0.09665,-0.0966 -0.366582,-0.10392 -0.471928,-0.31462 -0.05608,-0.11216 0.143099,-1.23007 0.157309,-1.25847 0.119984,-0.23997 0.354622,-0.39463 0.471928,-0.62924 0.08066,-0.16131 0.07665,-0.46792 0.157309,-0.62923 0.179341,-0.35869 0.412838,-0.61926 0.629238,-0.94386 0.15917,-0.23876 0.201789,-0.56089 0.314618,-0.78655 0.06633,-0.13265 0.248289,-0.18196 0.314619,-0.31462 0.380142,-0.76028 0.759237,-1.49172 1.357521,-2.24418 -0.400071,-0.19579 -0.800142,-0.39159 -1.200213,-0.58739 0,-0.0524 0.03708,-0.12021 0,-0.15731 -0.03708,-0.0371 -0.120228,0.0371 -0.157308,0 -0.209836,-0.20983 -0.455197,-1.38231 -0.629237,-1.7304 -0.408507,-0.81701 -0.966989,-1.64249 -1.258475,-2.51695 -0.209651,-0.62895 -1.16985,-2.1366 -1.573094,-2.67426 -0.342934,-0.45724 -0.500247,-1.05713 -0.629237,-1.57309 -0.05687,-0.2275 -0.2686286,-0.39929 -0.3146186,-0.62924 -0.03085,-0.15425 0.03085,-0.31767 0,-0.47192 -0.04599,-0.22995 -0.257738,-0.40174 -0.314618,-0.62924 -0.07403,-0.29611 0.07403,-0.64775 0,-0.94386 -0.532316,-2.12925 -0.143489,-4.85454 1.2584736,-6.60699 0.565791,-0.70724 1.654691,-1.32375 2.359639,-1.88771 0.742125,-0.5937 2.01776,-1.48762 2.988879,-1.7304 0.562557,-0.14064 1.140344,-0.16719 1.730401,-0.31462 0.780587,-0.25484 -0.290995,-0.85741 -0.157308,-1.25847 0.205648,-0.61695 0.749154,-3.26611 1.101165,-3.61812 0.122973,-0.12297 0.273663,0.13683 0.314619,0.15731 0.124227,0.0621 0.339261,-0.0442 0.471928,0 0.708715,0.23624 1.452093,0.34689 2.20233,0.47193 3.360173,0.56003 6.825073,-0.13318 10.067797,-0.94386 0.781276,-0.19532 0.200749,-0.13427 1.101165,-0.47193 0.954287,-0.35785 2.072369,-0.4856 2.988877,-0.94385 0.580829,-0.29042 1.121999,-0.54319 1.730403,-0.78655 0.538401,-0.21536 0.902863,-0.68739 1.415784,-0.94385 0.254045,-0.12703 0.60823,-0.47193 0.471928,-0.47193 -0.103987,0 0.258031,0.38705 0.314618,0.47193 0.174169,0.26125 0.716046,1.13378 0.786547,1.41578 0.438366,1.75346 0.314619,3.65035 0.314619,5.50583 0,0.21308 0.144406,1.11406 0,1.25847 -0.08874,0.0887 -0.503518,-0.0419 -0.629238,0 -0.611637,0.20388 -1.266722,0.31668 -1.887711,0.47193 -0.192158,0.048 -1.105229,-0.15325 -1.258475,0 -0.07272,0.0727 0.04749,0.37695 0,0.47193 -0.155363,0.31072 -0.312089,0.62418 -0.471928,0.94385 -0.817375,1.63475 -1.598667,3.44247 -2.674258,4.87659 -0.1778,0.23707 -0.350225,0.54314 -0.471928,0.78655 -0.0469,0.0938 0.07416,0.24046 0,0.31462 -0.128953,0.12895 -2.780311,0.15731 -3.146187,0.15731 -0.67299,0 -1.25781,-1.7e-4 -1.887712,0.15731 -0.493129,0.12328 -1.074295,-0.0998 -1.573093,0 -0.114974,0.023 -0.200868,0.12887 -0.314619,0.15731 -0.125123,0.0313 -0.809168,0.0673 -0.943856,0 -0.388775,-0.19439 0.0543,-0.15731 -0.314618,-0.15731 -0.472864,0 -1.445479,0.13248 -1.573093,-0.5694 -0.09238,-0.50809 0.635233,-0.98571 0.471928,-1.47563 -0.02345,-0.0703 -0.124146,-0.091 -0.15731,-0.1573 -0.111421,-0.22285 -0.08136,-0.5587 -0.157309,-0.78655 -0.02345,-0.0703 -0.104873,-0.10487 -0.157309,-0.15731 -0.05244,-0.10487 -0.120232,-0.20338 -0.15731,-0.31462 -0.04838,-0.14515 -0.06723,-0.53916 -0.157309,-0.62924 -0.08291,-0.0829 -0.249579,-0.0598 -0.314619,-0.15731 -0.05817,-0.0873 0.0469,-0.22081 0,-0.31461 -0.157309,-0.31462 -0.314618,-0.23597 -0.471928,-0.47193 -0.185377,-0.27807 -0.343534,-0.75339 -0.629237,-0.94386 -0.2766,-0.1844 -0.711456,-0.39684 -0.943856,-0.62924 -0.325479,-0.32547 0.497374,0.0127 -0.157309,-0.31461 -0.134536,-0.0673 -0.337393,-0.0901 -0.471928,-0.15731 -0.251695,-0.12585 -0.377543,-0.50339 -0.629237,-0.62924 -0.09534,-0.0477 -0.406009,-0.0914 -0.471928,-0.15731 -0.03708,-0.0371 0.03708,-0.12023 0,-0.15731 -0.0277,-0.0277 -0.811133,-0.18385 -0.943856,-0.15731 -0.212003,0.0424 -0.782116,0.31019 -0.629239,0.15731 0.298934,-0.29893 0.734111,-0.41949 1.101167,-0.62924"
       id="path33" /></g><path
     style="font-variation-settings:normal;opacity:1;fill:none;fill-opacity:1;stroke:#000000;stroke-width:2.4;stroke-linecap:butt;stroke-linejoin:miter;stroke-miterlimit:4;stroke-dasharray:none;stroke-dashoffset:0;stroke-opacity:1;paint-order:stroke fill markers"
     d="m 32.904364,9.8520092 c 0.864618,0.4034398 0.839509,0.8748198 1.258474,1.5730898 0.199256,0.33209 0.552943,0.63239 0.786549,0.94386 0.318344,0.42446 -0.0026,0.25779 0.314618,0.78654 0.07631,0.12718 0.225632,0.19597 0.314619,0.31462 0.241562,0.32209 0.264829,0.75601 0.471927,1.10117 0.306329,0.51055 0.7962,1.13978 0.943856,1.7304 0.149045,0.59618 0.43312,1.14205 0.629237,1.7304 0.03316,0.0995 -0.0469,0.22082 0,0.31462 0.03316,0.0663 0.133861,0.087 0.157311,0.15731 0.01058,0.0317 -0.05234,0.5769 0,0.62924 0.03708,0.0371 0.120229,-0.0371 0.157308,0 0.06592,0.0659 0.10964,0.37659 0.15731,0.47193 0.05598,0.11195 0.258641,0.20266 0.314619,0.31462 0.267282,0.53456 0.436793,1.20577 0.786545,1.7304 0.199285,0.29892 0.859648,1.39357 0.943856,1.7304 0.0957,0.38281 0.157343,0.70798 0.314619,1.10116 0.196152,0.49039 0.653381,0.88312 0.786546,1.41579 0.260717,1.04287 0.755038,2.1078 1.101166,3.14619 0.215046,0.64513 0.674304,1.1913 0.943856,1.7304 0.152339,0.30468 0.476899,0.16725 0.629238,0.47193 0.02344,0.0469 -0.03708,0.12023 0,0.15731 0.03708,0.0371 0.120229,-0.0371 0.157308,0 0.03708,0.0371 -0.03708,0.12023 0,0.1573 0.0021,0.002 1.247404,0.6743 1.415785,0.78655 0.334695,0.22313 0.609637,0.56374 0.943856,0.78655 0.04363,0.0291 0.120229,-0.0371 0.157308,0 0.08291,0.0829 0.0744,0.23171 0.157311,0.31462 0.07989,0.0799 0.718328,0.40371 0.786545,0.47193 0.03708,0.0371 -0.02344,0.1104 0,0.1573 0.03442,0.0688 1.062077,0.80657 1.258475,1.10117 0.09198,0.13797 0.04006,0.35468 0.157311,0.47193 0.03708,0.0371 0.120229,-0.0371 0.157308,0 0.07232,0.0723 0.252764,0.50553 0.314618,0.62923 0.04881,0.0976 0,0.55927 0,0.62924 0,0.1744 0.07541,0.47841 0,0.62924 -0.156019,0.31204 -1.21253,0.31462 -1.573093,0.31462 -0.219604,0 -0.731187,-0.20829 -0.943856,-0.31462 -0.1407,-0.0703 -0.322691,0.0498 -0.471927,0 -0.37719,-0.12573 -0.467304,-0.46962 -0.786548,-0.62924 -0.0938,-0.0469 -0.220816,0.0469 -0.314619,0 -0.352366,-0.17618 -0.692324,-0.33565 -1.101164,-0.47193 -0.132667,-0.0442 -0.347702,0.0621 -0.471929,0 -0.330592,-0.16529 -0.476941,-0.0812 -0.629237,-0.15731 -0.06633,-0.0332 -0.08696,-0.13385 -0.157308,-0.1573 -0.330351,-0.11012 -0.770816,0.11011 -1.101167,0 -0.07035,-0.0235 -0.09098,-0.12415 -0.157308,-0.15731 -0.250529,-0.12527 -0.675841,0.0893 -0.943856,0 -0.77274,-0.25758 -1.437034,-0.65049 -2.04502,-1.25848 -0.338932,-0.33893 -0.90899,-2.42937 -0.629238,-2.98888 0.07433,-0.14866 0.353047,-0.90542 0.157308,-1.10116 -0.03708,-0.0371 -0.120232,0.0371 -0.157308,0 -0.08291,-0.0829 -0.0744,-0.23171 -0.15731,-0.31462 -0.44195,-0.44195 -0.959096,-0.65972 -1.258475,-1.25847 -0.120465,-0.24094 -0.280329,-0.12302 -0.471927,-0.31462 -0.03708,-0.0371 0,-0.10487 0,-0.15731 -0.05244,-0.0524 -0.09561,-0.11618 -0.15731,-0.15731 -0.24433,-0.16289 -0.641012,-0.33817 -0.786546,-0.62924 -0.217715,-0.43543 -0.564369,-0.97143 -0.786548,-1.41578 -0.06633,-0.13266 -0.24829,-0.18197 -0.314619,-0.31462 -0.0469,-0.0938 0.03317,-0.21513 0,-0.31462 -0.130148,-0.39045 -0.301164,-0.75964 -0.471926,-1.10116 -0.01916,-0.0383 -0.10558,-0.63136 -0.157311,-0.78655 -0.0744,-0.22321 0.104336,-0.57788 0,-0.78655 -0.335306,-0.67061 -1.332267,-1.13806 -1.887712,-1.41578 -0.176887,-0.0884 -0.285586,-0.40982 -0.471927,-0.47193 -0.09949,-0.0332 -0.215127,0.0332 -0.314618,0 -0.250045,-0.0834 -0.391581,-0.51041 -0.629238,-0.62924 -0.406111,-0.20305 -0.749559,-0.43494 -1.101164,-0.78654 -0.355499,-0.3555 -0.81276,-1.03562 -1.258475,-1.25848 -0.0469,-0.0234 -0.120232,0.0371 -0.15731,0 -0.325477,-0.32548 0.497374,0.0127 -0.157308,-0.31462 -0.0469,-0.0234 -0.120232,0.0371 -0.157311,0 -0.03708,-0.0371 0.03708,-0.12023 0,-0.15731 -0.03708,-0.0371 -0.120232,0.0371 -0.157308,0 -0.0085,-0.009 -0.306096,-0.4634 -0.314619,-0.47192 -0.0085,-0.009 -0.463404,-0.3061 -0.471929,-0.31462 -0.03708,-0.0371 0.03708,-0.12023 0,-0.15731 -0.234503,-0.23451 -0.635937,0.19145 -0.943856,0.31462"
     id="path34" /><path
     style="font-variation-settings:normal;opacity:1;fill:none;fill-opacity:1;stroke:#000000;stroke-width:2.4;stroke-linecap:butt;stroke-linejoin:miter;stroke-miterlimit:4;stroke-dasharray:none;stroke-dashoffset:0;stroke-opacity:1;paint-order:stroke fill markers"
     d="m 14.813793,11.897029 c 0.590288,0.21872 2.722973,0.58052 3.146187,0.15731 0.04966,-0.0497 0,-1.63995 0,-1.88771 0,-0.001 0.09935,-1.1591298 0,-1.2584798 -0.117253,-0.11725 -0.309329,-0.12479 -0.471929,-0.15731 -0.202663,-0.0405 -4.230119,-0.0873 -4.404662,0 -0.06632,0.0332 -0.09098,0.12415 -0.157308,0.15731 -0.0469,0.0234 -0.13386,-0.0469 -0.15731,0 -0.0938,0.1876 0.04113,0.42357 0,0.62924 -0.03252,0.1626 -0.130048,0.30837 -0.157308,0.4719298 -0.02585,0.15517 0,0.31462 0,0.47193 0,0.0524 -0.05244,0.15731 0,0.15731 0.05244,0 0,-0.10488 0,-0.15731"
     id="path36" /><path
     style="font-variation-settings:normal;opacity:1;fill:none;fill-opacity:1;stroke:#000000;stroke-width:2.4;stroke-linecap:butt;stroke-linejoin:miter;stroke-miterlimit:4;stroke-dasharray:none;stroke-dashoffset:0;stroke-opacity:1;paint-order:stroke fill markers"
     d="m 28.185086,10.795869 c -0.591008,-0.36829 -0.496483,0.37524 -0.786548,0.47192 -0.585581,0.1952 -1.28103,0.19329 -1.887712,0.31462 -0.08216,0.0164 -0.798396,0.46008 -0.943856,0.31462 -0.194784,-0.19478 0.02833,-1.50374 0,-1.7304 -0.02682,-0.2145298 -0.126733,-0.4152098 -0.157308,-0.6292398 -0.03708,-0.25955 0.08291,-0.53782 0,-0.78655 -0.01535,-0.0461 -0.283903,-0.18802 -0.157311,-0.31462 0.111236,-0.11123 0.319315,0.0382 0.47193,0 0.40782,-0.10195 0.851783,-0.33636 1.258474,-0.47192 0.482103,-0.1607 0.943303,-0.1965 1.415783,-0.31462 0.346514,-0.0866 0.777682,-0.33235 0.786548,-0.31462 0.0469,0.0938 -0.03316,0.21513 0,0.31462 0.02344,0.0703 0.124145,0.091 0.157308,0.15731 0.264898,0.5298 0.786548,1.91224 0.786548,2.5169498"
     id="path37" /></svg>
