<?xml version="1.0" encoding="UTF-8" standalone="no"?>
<!-- Created with Inkscape (http://www.inkscape.org/) -->

<svg
   width="46.717293mm"
   height="52.129555mm"
   viewBox="0 0 46.717293 52.129555"
   version="1.1"
   id="svg1"
   xml:space="preserve"
   xmlns="http://www.w3.org/2000/svg"
   xmlns:svg="http://www.w3.org/2000/svg"><defs
     id="defs1" /><g
     id="layer1"
     transform="translate(-7.3570306,-47.368498)"><path
       style="fill:none;stroke:#000000;stroke-width:2.4;stroke-dasharray:none;paint-order:stroke fill markers"
       d="M 26.60666,53.12976 C 21.229262,60.599959 15.851862,68.07016 10.474465,75.540357"
       id="path6" /><path
       style="fill:none;stroke:#000000;stroke-width:2.4;stroke-dasharray:none;paint-order:stroke fill markers"
       d="m 51.00914,70.695806 c -5.377398,7.470198 -10.754798,14.9404 -16.132195,22.410597"
       id="path7" /><path
       style="fill:none;stroke:#000000;stroke-width:2.4;stroke-dasharray:none;paint-order:stroke fill markers"
       d="m 26.60666,53.12976 c 3.52438,-2.42724 7.455395,-5.562237 12.347985,-4.261171 4.22801,0.214012 8.25356,2.602338 10.908954,5.899921 1.826255,2.554177 3.033699,5.702877 2.849945,8.681802 0.81786,2.964087 -1.796175,6.327951 -2.653945,7.965826 0.31971,-0.236276 0.631235,-0.482365 0.949541,-0.720332"
       id="path8" /><path
       style="fill:none;stroke:#000000;stroke-width:2.4;stroke-dasharray:none;paint-order:stroke fill markers"
       d="m 10.474465,75.540357 c -2.5760906,4.654214 -2.8059966,10.929836 0.868814,15.620793 2.891638,3.826104 7.606498,5.771523 12.111347,6.653978 4.961098,1.76869 9.428496,-1.540053 11.747364,-5.277263 0.09029,-0.622447 -0.274683,0.644601 -0.325052,0.568533"
       id="path9" /><path
       style="fill:none;stroke:#000000;stroke-width:2.4;stroke-dasharray:none;paint-order:stroke fill markers"
       d="m 15.851862,68.07016 c 0.435014,2.102438 1.697013,3.967028 3.596187,4.997237 3.043013,1.991955 6.655271,2.796599 10.051315,3.974931 3.336904,1.010673 6.836005,1.298257 10.30516,1.201514 1.96459,0.761859 4.256077,-1.2127 5.827236,-0.07786"
       id="path10" /><path
       style="fill:none;stroke:#000000;stroke-width:2.4;stroke-dasharray:none;paint-order:stroke fill markers"
       d="m 24.26705,75.395398 c -0.568065,2.171955 -0.03017,4.505626 1.028743,6.439353 0.871092,1.951595 1.893699,3.966829 3.737189,5.173035 0.958628,0.583238 1.522353,1.581819 2.392558,2.242215 1.330547,0.994631 1.639479,1.248558 3.040237,2.138603 -0.275734,0.03094 0.831714,0.957446 0.736192,1.149283"
       id="path11" /><ellipse
       style="fill:none;stroke:#000000;stroke-width:2.4;stroke-dasharray:none;paint-order:stroke fill markers"
       id="path12"
       cx="67.714287"
       cy="26.024265"
       rx="11.264871"
       ry="10.652512"
       transform="rotate(35.748104)" /><path
       style="fill:none;stroke:#000000;stroke-width:2.4;stroke-dasharray:none;paint-order:stroke fill markers"
       d="m 46.192065,52.583208 c -0.485411,-0.175645 -0.935104,-0.02339 -1.381285,0.168653 -0.173657,0.07475 -0.363637,0.11136 -0.531054,0.199205 -1.23987,0.650585 -2.056231,2.251957 -1.832859,3.623231 0.02781,0.17071 0.417227,1.171744 0.635871,1.136126 0.05786,-0.0094 0.103829,-0.05448 0.155743,-0.08172"
       id="path13" /><path
       style="fill:none;stroke:#000000;stroke-width:2.4;stroke-dasharray:none;paint-order:stroke fill markers"
       d="m 34.240632,55.318932 c -0.02034,0.183474 -0.09828,1.099679 -0.02285,1.243431 0.07353,0.140131 0.167961,0.320095 0.245157,0.467216 0.04904,0.09344 0.0046,0.235918 0.05365,0.329362 0.04326,0.08246 0.152995,0.169498 0.209392,0.247639 0.05532,0.07665 0.04429,0.188873 0.09961,0.265527 0.06137,0.08504 0.193969,0.09877 0.255343,0.183807 0.0217,0.03006 -0.0038,0.07972 0.01788,0.109789 0.04618,0.06398 0.254911,0.183497 0.319179,0.22976 0.20092,0.144631 0.413725,0.357442 0.638357,0.459519 0.493847,0.224414 1.085291,0.389241 1.598374,0.472188 0.108707,0.01757 0.740868,-0.04492 0.832347,-0.07924 0.05489,-0.02059 0.09788,-0.07229 0.155735,-0.08172 0.05786,-0.0094 0.115761,0.03749 0.173628,0.02806 0.08182,-0.01333 0.128276,-0.107027 0.201687,-0.145556 0.142009,-0.07452 0.203466,-0.01339 0.265526,-0.0996"
       id="path14" /><path
       style="fill:none;stroke:#000000;stroke-width:2.4;stroke-dasharray:none;paint-order:stroke fill markers"
       d="m 42.092411,60.97101 c -0.315383,0.612525 -0.266538,2.018866 0.191751,2.560876 0.259386,0.306778 0.547487,0.588301 0.819679,0.880788 0.03993,0.04293 0.04387,0.110966 0.08172,0.155734 0.144987,0.171484 0.557395,0.468354 0.766027,0.551423 0.05447,0.0217 0.119153,0.0064 0.173622,0.02807 0.09743,0.0388 0.157912,0.145006 0.255342,0.183807 0.131328,0.0523 0.27975,0.04979 0.411081,0.102086 0.116738,0.04649 0.239511,0.145612 0.365128,0.165928 0.181561,0.02935 0.388605,-0.0633 0.548937,-0.08942 0.05786,-0.0094 0.115759,0.03749 0.173619,0.02807 0.05786,-0.0094 0.09788,-0.0723 0.155743,-0.08172 0.266653,-0.04344 0.08007,0.08646 0.283411,0.01018 0.386856,-0.145114 0.906219,-0.316485 1.136127,-0.63587"
       id="path15" /></g></svg>
